<?xml version="1.0" standalone="no"?>
<!DOCTYPE svg PUBLIC "-//W3C//DTD SVG 1.1//EN"
"http://www.w3.org/Graphics/SVG/1.1/DTD/svg11.dtd">

<svg width="458" height="288" view_box="0 0 458 288"
xmlns="http://www.w3.org/2000/svg"
xmlns:link="http://www.w3.org/1999/xlink">\n\n<desc>Généré par Mocodo 2.3.7 le Mon, 21 Feb 2022 01:34:01</desc>

<rect id="frame" x="0" y="0" width="458" height="288" fill="#f5f5f5" stroke="none" stroke-width="0"/>

<!-- Association envoie -->
<line x1="77" y1="117" x2="211" y2="117" stroke="#bf812d" stroke-width="1.5"/>
<text x="151" y="108.0" fill="#01665e" font-family="Arial" font-size="12">0,N</text>
<line x1="363" y1="117" x2="211" y2="117" stroke="#bf812d" stroke-width="1.5"/>
<text x="253" y="108.0" fill="#01665e" font-family="Arial" font-size="12">1,1</text>
<g id="association-envoie">
	<path d="M 230 89 a 14 14 90 0 1 14 14 V 116 h -66 V 103 a 14 14 90 0 1 14 -14" fill="#dfc27d" stroke="#dfc27d" stroke-width="0"/>
	<path d="M 244 116.0 v 15 a 14 14 90 0 1 -14 14 H 192 a 14 14 90 0 1 -14 -14 V 116.0 H 66" fill="#f6e8c3" stroke="#f6e8c3" stroke-width="0"/>
	<rect x="178" y="89" width="66" height="56" fill="none" rx="14" stroke="#bf812d" stroke-width="3"/>
	<line x1="178" y1="116" x2="244" y2="116" stroke="#bf812d" stroke-width="1.5"/>
	<text x="187" y="109.3" fill="#000000" font-family="Arial Black" font-size="13">envoie</text>
</g>

<!-- Association reçoit -->
<line x1="77" y1="117" x2="211" y2="251" stroke="#bf812d" stroke-width="1.5"/>
<text x="151" y="184.4852" fill="#01665e" font-family="Arial" font-size="12">0,N</text>
<line x1="363" y1="117" x2="211" y2="251" stroke="#bf812d" stroke-width="1.5"/>
<text x="253" y="191.547243308" fill="#01665e" font-family="Arial" font-size="12">1,1</text>
<g id="association-reçoit">
	<path d="M 228 223 a 14 14 90 0 1 14 14 V 250 h -62 V 237 a 14 14 90 0 1 14 -14" fill="#dfc27d" stroke="#dfc27d" stroke-width="0"/>
	<path d="M 242 250.0 v 15 a 14 14 90 0 1 -14 14 H 194 a 14 14 90 0 1 -14 -14 V 250.0 H 62" fill="#f6e8c3" stroke="#f6e8c3" stroke-width="0"/>
	<rect x="180" y="223" width="62" height="56" fill="none" rx="14" stroke="#bf812d" stroke-width="3"/>
	<line x1="180" y1="250" x2="242" y2="250" stroke="#bf812d" stroke-width="1.5"/>
	<text x="189" y="243.3" fill="#000000" font-family="Arial Black" font-size="13">reçoit</text>
</g>

<!-- Entity ADRESSE -->
<g id="entity-ADRESSE">
	<g id="frame-ADRESSE">
		<rect x="9" y="45" width="136" height="28" fill="#80cdc1" stroke="#80cdc1" stroke-width="0"/>
		<rect x="9" y="73.0" width="136" height="116" fill="#c7eae5" stroke="#c7eae5" stroke-width="0"/>
		<rect x="9" y="45" width="136" height="144" fill="none" stroke="#35978f" stroke-width="3"/>
		<line x1="9" y1="73" x2="145" y2="73" stroke="#35978f" stroke-width="1.5"/>
	</g>
	<text x="42" y="65.3" fill="#000000" font-family="Arial Black" font-size="13">ADRESSE</text>
	<text x="17" y="89.2" fill="#000000" font-family="Arial" font-size="14">référence interne</text>
	<line x1="17" y1="92" x2="129" y2="92" stroke="#000000" stroke-width="1.2"/>
	<text x="17" y="107.2" fill="#000000" font-family="Arial" font-size="14">nom</text>
	<text x="17" y="125.2" fill="#000000" font-family="Arial" font-size="14">adresse principale</text>
	<text x="17" y="143.2" fill="#000000" font-family="Arial" font-size="14">complément</text>
	<text x="17" y="161.2" fill="#000000" font-family="Arial" font-size="14">code postal</text>
	<text x="17" y="179.2" fill="#000000" font-family="Arial" font-size="14">ville</text>
</g>

<!-- Entity COLIS -->
<g id="entity-COLIS">
	<g id="frame-COLIS">
		<rect x="277" y="9" width="172" height="28" fill="#80cdc1" stroke="#80cdc1" stroke-width="0"/>
		<rect x="277" y="37.0" width="172" height="188" fill="#c7eae5" stroke="#c7eae5" stroke-width="0"/>
		<rect x="277" y="9" width="172" height="216" fill="none" stroke="#35978f" stroke-width="3"/>
		<line x1="277" y1="37" x2="449" y2="37" stroke="#35978f" stroke-width="1.5"/>
	</g>
	<text x="340" y="29.3" fill="#000000" font-family="Arial Black" font-size="13">COLIS</text>
	<text x="285" y="53.2" fill="#000000" font-family="Arial" font-size="14">numéro interne</text>
	<line x1="285" y1="56" x2="385" y2="56" stroke="#000000" stroke-width="1.2"/>
	<text x="285" y="71.2" fill="#000000" font-family="Arial" font-size="14">contenu</text>
	<text x="285" y="89.2" fill="#000000" font-family="Arial" font-size="14">poids</text>
	<text x="285" y="107.2" fill="#000000" font-family="Arial" font-size="14">largeur</text>
	<text x="285" y="125.2" fill="#000000" font-family="Arial" font-size="14">hauteur</text>
	<text x="285" y="143.2" fill="#000000" font-family="Arial" font-size="14">profondeur</text>
	<text x="285" y="161.2" fill="#000000" font-family="Arial" font-size="14">valeur estimée</text>
	<text x="285" y="179.2" fill="#000000" font-family="Arial" font-size="14">date de prise en charge</text>
	<text x="285" y="197.2" fill="#000000" font-family="Arial" font-size="14">date d'expedition</text>
	<text x="285" y="215.2" fill="#000000" font-family="Arial" font-size="14">date de livraison</text>
</g>
</svg>